<svg width="31" height="31" viewBox="0 0 31 31" fill="none" xmlns="http://www.w3.org/2000/svg">
<rect width="31" height="31" rx="15.5" fill="white" fill-opacity="0.3"/>
<path d="M12.59 17.51L19.42 21.49M19.41 10.51L12.59 14.49M25 9C25 10.6569 23.6569 12 22 12C20.3431 12 19 10.6569 19 9C19 7.34315 20.3431 6 22 6C23.6569 6 25 7.34315 25 9ZM13 16C13 17.6569 11.6569 19 10 19C8.34315 19 7 17.6569 7 16C7 14.3431 8.34315 13 10 13C11.6569 13 13 14.3431 13 16ZM25 23C25 24.6569 23.6569 26 22 26C20.3431 26 19 24.6569 19 23C19 21.3431 20.3431 20 22 20C23.6569 20 25 21.3431 25 23Z" stroke="#1D2939" stroke-width="1.5" stroke-linecap="round" stroke-linejoin="round"/>
</svg>
