<svg width="24" height="25" viewBox="0 0 24 25" fill="none" xmlns="http://www.w3.org/2000/svg">
<g id="tdesign:heart-filled">
<path id="Vector" d="M11.5079 5.88147L12.0029 6.31614L12.4978 5.88147C13.5666 4.94273 14.9588 4.4566 16.3796 4.52592C17.8005 4.59525 19.1387 5.21458 20.1111 6.25291C21.0835 7.29124 21.6138 8.66712 21.5899 10.0895C21.566 11.5118 20.9897 12.8691 19.983 13.8742L19.9825 13.8746L14.7577 19.0995L14.7575 19.0996L12.001 21.8545L5.25162 15.106L5.25116 15.1056L4.02163 13.874L4.02087 13.8733C3.01444 12.8681 2.43848 11.5108 2.41482 10.0885C2.39116 8.66629 2.92166 7.2906 3.89409 6.25247C4.86653 5.21433 6.20466 4.59516 7.62542 4.52592C9.0463 4.45668 10.4393 4.94288 11.5079 5.88147Z" fill="#F2F4F7" fill-opacity="0.3" stroke="#1D2939" stroke-width="1.5"/>
</g>
</svg>
